<?xml version="1.0" encoding="UTF-8"?>
<!DOCTYPE svg PUBLIC "-//W3C//DTD SVG 1.1//EN" "http://www.w3.org/Graphics/SVG/1.1/DTD/svg11.dtd">
<!-- Creator: CorelDRAW X8 -->
<svg xmlns="http://www.w3.org/2000/svg" xml:space="preserve" width="27.1639mm" height="16.5201mm" version="1.1" style="shape-rendering:geometricPrecision; text-rendering:geometricPrecision; image-rendering:optimizeQuality; fill-rule:evenodd; clip-rule:evenodd"
viewBox="0 0 247 150"
 xmlns:xlink="http://www.w3.org/1999/xlink">
 <defs>
  <style type="text/css">
   <![CDATA[
    .str1 {stroke:#2D2B2D;stroke-width:0.0118029}
    .str2 {stroke:#054D97;stroke-width:0.690013}
    .str0 {stroke:#2D2B2D;stroke-width:0.691829}
    .fil0 {fill:#FEFEFE}
    .fil5 {fill:#898A8C}
    .fil3 {fill:#464648}
    .fil1 {fill:#2D2B2D}
    .fil2 {fill:#2D2B2D}
    .fil4 {fill:#054D97}
   ]]>
  </style>
 </defs>
 <g id="Capa_x0020_1">
  <metadata id="CorelCorpID_0Corel-Layer"/>
  <g id="_2909174777120">
   <polygon class="fil0 str0" points="173,0 246,0 246,134 173,134 "/>
   <path class="fil1 str0" d="M221 29c8,0 15,7 15,15 0,7 -4,12 -9,14l-5 2 13 23 -10 0 -15 -27 13 -6c2,-1 4,-3 4,-6 0,-4 -3,-7 -7,-7l-36 0 0 -8 37 0zm-28 28l14 0 0 8 -14 0 0 10 17 0 0 8 -26 0 0 -42 26 0 0 7 -17 0 0 9z"/>
   <path class="fil1 str0" d="M176 118l68 0 0 -115 -68 0 0 115zm0 14l68 0 0 -13 -68 0 0 13zm-1 -130l69 0 0 131 -69 0 0 -131z"/>
   <path class="fil1 str1" d="M186 103l1 0c1,0 1,0 1,1 0,1 0,1 -1,1l-1 0 0 -2zm0 5l0 -2 1 0c0,0 1,0 1,0l1 3 1 0 0 -1 -1 0 0 -2c0,0 -1,0 -1,-1 1,0 1,0 1,-1 0,-1 0,-1 0,-2 -1,0 -1,0 -2,0l-3 0 0 1 1 0 0 5 -1 0 0 1 3 0 0 -1 -1 0zm5 -2c1,-1 1,-2 2,-2 1,0 1,1 2,2l-4 0zm3 1c0,1 0,1 -1,1 -1,0 -2,0 -2,-1l4 0c0,-2 0,-3 -2,-3 -1,0 -2,1 -2,2 0,2 0,3 2,3 1,0 2,-1 2,-2l-1 0zm6 -1c0,1 0,2 -1,2 -1,0 -2,-1 -2,-2 0,-1 1,-2 2,-2 1,0 1,1 1,2 0,0 0,-1 0,0zm0 2l0 0c0,2 0,2 -1,2 -1,0 -1,0 -2,-1l0 0c0,1 0,2 2,2 1,0 2,-1 2,-3l0 -3 1 0 0 -1 -2 0 0 1c0,-1 -1,-1 -1,-1 -2,0 -3,1 -3,2 0,2 1,3 2,3 1,0 2,-1 2,-1 0,0 0,0 0,0zm2 1l3 0 0 -1 -1 0 0 -4 -2 0 0 1 1 0 0 3 -1 0 0 1zm1 -6l1 0 0 -1 -1 0 0 1zm3 6l0 0 0 -1c1,1 1,1 2,1 1,0 2,-1 2,-2 0,-1 -1,-1 -2,-1l-1 0c0,0 0,0 0,-1 0,0 0,-1 1,-1 0,0 1,1 1,1l1 0 0 -1 -1 0 0 0c0,0 -1,0 -1,0 -2,0 -2,0 -2,1 0,1 0,1 1,2l1 0c1,0 1,0 1,0 0,1 -1,1 -1,1 -1,0 -2,0 -2,-1l0 0 0 2zm5 -4l0 3c0,0 1,1 2,1 0,0 1,-1 1,-2l-1 0c0,1 0,1 0,1 -1,0 -1,0 -1,0l0 -3 2 0 0 -1 -2 0 0 -1 -1 0 0 1 -1 0 0 1 1 0zm5 3l0 -2c0,-1 1,-2 2,-2 0,0 0,1 0,1l0 -1c0,0 0,0 0,0 -1,0 -2,0 -2,1l0 -1 -2 0 0 1 1 0 0 3 -1 0 0 1 3 0 0 -1 -1 0zm6 1l2 0 0 -1 -1 0 0 -3c0,-1 -1,-1 -2,-1 -1,0 -2,0 -2,1l1 0c0,0 0,-1 1,-1 1,0 1,1 1,1l0 1c0,0 -1,0 -1,0 -2,0 -3,0 -3,1 0,1 1,2 2,2 1,0 2,0 2,-1l0 1zm0 -3l0 1c0,1 -1,1 -2,1 0,0 -1,0 -1,-1 0,0 1,-1 2,-1 0,0 1,0 1,0 0,0 0,0 0,0zm6 2l0 1 2 0 0 -1 -1 0 0 -6 -2 0 0 0 1 0 0 3c0,-1 -1,-1 -2,-1 -1,0 -2,1 -2,2 0,2 1,3 2,3 1,0 2,0 2,-1 0,0 0,1 0,0zm0 -2c0,1 0,2 -1,2 -1,0 -2,-1 -2,-2 0,-1 1,-2 2,-2 1,0 1,1 1,2 0,0 0,-1 0,0zm6 3l2 0 0 -1 -1 0 0 -3c0,-1 -1,-1 -2,-1 -1,0 -2,0 -2,1l1 0c0,0 0,-1 1,-1 1,0 1,1 1,1l0 1c0,0 -1,0 -1,0 -2,0 -2,0 -2,1 0,1 0,2 1,2 1,0 2,0 2,-1l0 1zm0 -3l0 1c0,1 -1,1 -2,1 0,0 -1,0 -1,-1 0,0 1,-1 2,-1 0,0 1,0 1,0 0,0 0,0 0,0zm-50 -8l6 0 0 -2 -1 0 0 1 -3 0 0 -2 1 0 0 1 1 0 0 -3 -1 0 0 1 -1 0 0 -2 3 0 0 1 1 0 0 -2 -6 0 0 1 1 0 0 5 -1 0 0 1zm8 0l0 -3c0,-1 1,-1 1,-1 1,0 1,0 1,1l0 3 0 0 0 0 2 0 0 0 -1 0 0 -3c0,-1 1,-1 2,-1 0,0 1,0 1,1l0 3 -1 0 0 0 2 0 0 0 -1 0 0 -3c0,-1 0,-1 0,-1 0,-1 -1,-1 -1,-1 -1,0 -1,0 -2,1 0,0 -1,-1 -1,-1 -1,0 -1,0 -2,1l0 -1 -1 0 0 1 0 0 0 4 0 0 0 0 2 0 0 0 -1 0zm9 -4l0 -1 -2 0 0 1 1 0 0 5 -1 0 0 1 3 0 0 -1 -1 0 0 -2c1,1 1,1 2,1 1,0 2,-1 2,-2 0,-2 -1,-3 -2,-3 -1,0 -1,1 -2,1 0,0 1,0 0,0zm0 2c0,-1 1,-2 2,-2 1,0 1,1 1,2 0,1 0,2 -1,2 -1,0 -2,-1 -2,-2 0,0 0,1 0,0zm7 2l0 -2c0,-1 0,-2 1,-2 0,0 0,0 0,0l0 -1c0,0 0,0 0,0 -1,0 -1,0 -1,1l0 -1 -2 0 0 1 1 0 0 4 -1 0 0 0 3 0 0 0 -1 0zm3 -3c0,-1 0,-1 1,-1 1,0 2,0 2,1l-3 0zm3 2c0,0 -1,1 -2,1 -1,0 -1,-1 -1,-2l4 0c0,-2 -1,-3 -3,-3 -1,0 -2,1 -2,3 0,1 1,2 2,2 1,0 2,0 2,-1l0 0zm2 1l0 0 0 0c1,0 1,0 2,0 1,0 2,0 2,-1 0,-1 -1,-1 -2,-2l-1 0c0,0 -1,0 -1,0 0,-1 1,-1 2,-1 0,0 1,0 1,1l0 0 0 -2 0 0 0 1c0,-1 -1,-1 -2,-1 -1,0 -1,1 -1,2 0,0 0,1 1,1l1 0c0,0 1,0 1,1 0,0 -1,1 -1,1 -1,0 -2,-1 -2,-1l0 0 0 1zm8 0l2 0 0 0 -1 0 0 -3c0,-1 -1,-2 -2,-2 -1,0 -2,1 -2,2l1 0c0,-1 0,-1 1,-1 1,0 1,0 1,1l0 0c0,0 -1,0 -1,0 -2,0 -2,1 -2,2 0,1 0,1 1,1 1,0 2,0 2,-1l0 1zm0 -2l0 0c0,1 -1,2 -1,2 -1,0 -1,-1 -1,-1 0,-1 0,-1 1,-1 0,0 1,0 1,0 0,0 0,0 0,0z"/>
   <path class="fil2" d="M184 20l4 0 0 -1 -1 0 0 -2 5 0 1 2 -2 0 0 1 4 0 0 -1 -1 0 -4 -9 -1 0 -4 9 -1 0 0 1zm4 -4l2 -4 1 4 -3 0zm8 4l8 0 0 -3 -1 0 0 2 -5 0 0 -4 2 0 0 2 1 0 0 -4 -1 0 0 2 -2 0 0 -4 5 0 0 2 1 0 0 -3 -8 0 0 1 1 0 0 8 -1 0 0 1zm10 -1l-1 0 0 1 4 0 0 -1 -1 0 0 -7 4 8 2 0 0 -9 1 0 0 -1 -4 0 0 1 2 0 0 7 -5 -8 -3 0 0 1 1 0 0 8zm10 -4c0,3 2,5 5,5 3,0 5,-2 5,-5 0,-3 -2,-5 -5,-5 -3,0 -5,2 -5,5 0,0 0,-3 0,0zm2 0c0,-2 1,-4 3,-4 2,0 4,2 4,4 0,3 -2,4 -4,4 -2,0 -3,-1 -3,-4 0,0 0,3 0,0zm12 -4l1 0c2,0 2,1 2,2 0,1 0,2 -2,2l-1 0 0 -4zm0 8l0 -3 1 0c1,0 1,0 2,1l1 3 2 0 0 -1 -1 0 -1 -2c0,-1 0,-2 -1,-2 1,0 2,-1 2,-2 0,-1 -1,-2 -1,-2 -1,-1 -2,-1 -3,-1l-4 0 0 1 1 0 0 8 -1 0 0 1 4 0 0 -1 -1 0z"/>
   <path class="fil1" d="M247 144c0,1 -1,3 -1,4 -1,1 -1,1 -2,1 -1,0 -2,0 -2,-1 -1,-1 -1,-3 -1,-4 0,-2 0,-3 1,-4 0,-1 1,-1 2,-1 1,0 1,0 2,1 0,1 1,2 1,4zm-4 0c0,1 0,2 0,2 0,1 0,1 1,1 0,0 0,0 0,-1 1,0 1,-1 1,-2 0,-2 0,-2 -1,-3 0,0 0,-1 0,-1 -1,0 -1,1 -1,1 0,1 0,1 0,3z"/>
   <path class="fil1" d="M240 144c0,1 0,3 0,4 -1,1 -2,1 -3,1 0,0 -1,0 -2,-1 0,-1 0,-3 0,-4 0,-2 0,-3 0,-4 1,-1 2,-1 2,-1 1,0 2,0 3,1 0,1 0,2 0,4zm-3 0c0,1 0,2 0,2 0,1 0,1 0,1 1,0 1,0 1,-1 0,0 0,-1 0,-2 0,-2 0,-2 0,-3 0,0 0,-1 -1,-1 0,0 0,1 0,1 0,1 0,1 0,3z"/>
   <path class="fil1" d="M234 144c0,1 0,3 -1,4 0,1 -1,1 -2,1 -1,0 -1,0 -2,-1 0,-1 -1,-3 -1,-4 0,-2 1,-3 1,-4 1,-1 1,-1 2,-1 1,0 2,0 2,1 1,1 1,2 1,4zm-4 0c0,1 0,2 1,2 0,1 0,1 0,1 1,0 1,0 1,-1 0,0 0,-1 0,-2 0,-2 0,-2 0,-3 0,0 0,-1 -1,-1 0,0 0,1 0,1 -1,1 -1,1 -1,3z"/>
   <path class="fil1" d="M222 149l3 -5c0,-1 0,-1 0,-2 1,0 1,-1 1,-1 0,0 0,0 0,-1 -1,0 -1,0 -1,0 0,0 -1,0 -1,1 0,0 0,0 0,1l-2 0c0,0 0,0 0,0 0,0 0,0 0,0 0,-1 1,-2 1,-3 1,0 1,0 2,0 1,0 1,0 2,0 0,1 1,1 1,2 0,1 -1,1 -1,2 0,0 0,1 -1,3l-1 1 2 0 0 2 -5 0z"/>
   <polygon class="fil1" points="214,149 214,140 213,140 213,139 216,139 216,149 "/>
   <path class="fil1" d="M211 144c0,1 0,3 0,4 -1,1 -2,1 -2,1 -1,0 -2,0 -3,-1 0,-1 0,-3 0,-4 0,-2 0,-3 0,-4 1,-1 2,-1 3,-1 0,0 1,0 2,1 0,1 0,2 0,4zm-3 0c0,1 0,2 0,2 0,1 0,1 1,1 0,0 0,0 0,-1 0,0 0,-1 0,-2 0,-2 0,-2 0,-3 0,0 0,-1 0,-1 -1,0 -1,1 -1,1 0,1 0,1 0,3z"/>
   <path class="fil1" d="M205 144c0,1 0,3 -1,4 0,1 -1,1 -2,1 -1,0 -1,0 -2,-1 0,-1 0,-3 0,-4 0,-2 0,-3 0,-4 1,-1 1,-1 2,-1 1,0 2,0 2,1 1,1 1,2 1,4zm-4 0c0,1 1,2 1,2 0,1 0,1 0,1 1,0 1,0 1,-1 0,0 0,-1 0,-2 0,-2 0,-2 0,-3 0,0 0,-1 -1,-1 0,0 0,1 0,1 0,1 -1,1 -1,3z"/>
   <path class="fil1" d="M197 145c-1,0 -1,0 -1,0 0,0 -1,0 -1,0 0,0 -1,0 -1,-1 -1,0 -1,-1 -1,-2 0,-1 0,-2 1,-2 0,-1 1,-1 2,-1 1,0 2,0 2,1 1,0 1,1 1,2 0,1 -1,3 -1,4l-1 1 -1 2 -2 0 2 -3c0,0 0,0 0,0 0,-1 0,-1 1,-1zm-1 -5c0,0 0,0 -1,1 0,0 0,0 0,1 0,0 0,1 0,1 1,0 1,1 1,1 0,0 0,-1 1,-1 0,0 0,-1 0,-1 0,-1 0,-1 0,-1 -1,-1 -1,-1 -1,-1z"/>
   <path class="fil1" d="M189 144c0,1 0,3 -1,4 0,1 -1,1 -2,1 -1,0 -2,0 -3,-1 -1,-1 -1,-3 -1,-4 0,-2 0,-3 1,-4 1,-1 2,-1 3,-1 1,0 2,0 2,1 1,1 1,2 1,4zm-3 3c0,0 1,0 1,-1 0,0 0,-1 0,-2 0,-1 0,-2 0,-3 0,0 -1,0 -1,0 -1,0 -1,0 -1,0 -1,1 -1,2 -1,3 0,1 0,2 1,2 0,1 0,1 1,1z"/>
   <path class="fil1" d="M177 148l0 -2c0,1 0,1 0,1 1,0 1,0 1,0 1,0 1,0 1,0 0,0 0,-1 0,-1 0,0 0,-1 0,-1 -1,0 -1,0 -1,0 0,-1 -1,-2 -1,-2 0,0 0,-1 0,-2 0,0 0,-1 0,-2 1,0 1,0 2,0 1,0 1,0 1,0 0,0 1,0 1,0l0 2c0,0 -1,0 -1,0 0,-1 0,-1 0,-1 -1,0 -1,1 -1,1 0,0 0,0 0,0 0,1 0,1 0,1 0,0 0,1 1,1 0,1 1,1 1,2 0,0 0,0 0,1 0,1 0,2 0,2 -1,1 -2,1 -3,1 0,0 0,0 0,0 -1,0 -1,0 -1,-1z"/>
   <polygon class="fil1" points="173,149 173,139 175,139 175,149 "/>
   <path class="fil3" d="M183 123l0 3 0 0c0,0 1,-1 1,-1 0,0 0,0 0,-1l1 0 0 4 -1 0c0,-1 0,-1 0,-1 0,-1 0,-1 0,-1 -1,0 -1,0 -1,0l0 2c0,0 0,1 0,1 0,0 0,0 0,0 0,0 0,0 1,0l0 0c1,0 1,0 1,-1 1,0 1,0 1,-1l0 0 0 2 -6 0 0 0 1 0c0,0 0,0 0,0 0,0 0,0 0,0 0,0 0,-1 0,-1l0 -4c0,-1 0,-1 0,-1 0,0 0,0 0,0 0,0 0,0 0,0l-1 0 0 -1 6 0 0 2 0 0c0,0 0,0 -1,-1 0,0 0,0 0,0 -1,0 -1,0 -1,0l-1 0zm7 3l0 2c0,0 0,1 0,1 0,0 0,0 0,0 0,0 0,0 1,0l0 0 -4 0 0 0c0,0 1,0 1,0 0,0 0,0 0,0 0,0 0,-1 0,-1l0 -4c0,-1 0,-1 0,-1 0,0 0,0 0,0 0,0 -1,0 -1,0l0 -1 3 0c1,0 2,1 2,1 0,0 1,0 1,0 0,1 0,1 0,1 0,1 0,1 0,2 0,0 -1,0 -1,0l2 2c0,1 0,1 0,1 0,0 0,0 0,0l0 0 -2 0 -2 -3 0 0zm0 -3l0 3 0 0c0,0 1,0 1,0 0,0 0,-1 1,-1 0,0 0,0 0,-1 0,0 0,-1 -1,-1 0,0 0,0 -1,0l0 0zm8 4l-3 0 0 -1 3 0 0 1zm5 -1c0,1 -1,1 -1,2 0,0 0,0 0,1 0,0 -1,0 -1,0 0,0 0,0 -1,0 0,0 0,0 -1,0 0,0 0,0 0,-1 0,0 0,0 -1,0 0,-1 0,-2 0,-2 0,-1 0,-1 0,-2 1,-1 1,-1 1,-1 1,-1 1,-1 1,-1 1,0 1,0 1,1 1,0 1,0 1,1 0,0 1,1 1,2zm-2 0c0,-1 0,-2 0,-2 0,-1 0,-1 0,-1 0,0 0,0 -1,0 0,0 0,0 0,0 0,0 0,0 0,0 0,1 0,2 0,3 0,1 0,2 0,2 0,1 0,1 0,1 0,0 0,0 0,0 1,0 1,0 1,0 0,0 0,-1 0,-1l0 -2zm5 -4l0 6c0,0 0,1 0,1 0,0 0,0 1,0 0,0 0,0 0,0l0 0 0 0 -3 0 0 0 0 0c0,0 0,0 1,0 0,0 0,0 0,0 0,0 0,-1 0,-1l0 -4c0,0 0,0 0,0 0,0 0,0 0,0 0,-1 -1,-1 -1,-1 0,0 0,1 0,1l0 -1 2 -1 0 0zm4 0l3 0 -1 2 -2 0 -1 0c2,0 2,1 3,1 1,1 1,1 1,2 0,0 0,1 -1,1 0,1 0,1 -1,1 0,0 0,0 -1,0 -1,0 -1,0 -1,0 0,0 -1,0 -1,0 0,-1 1,-1 1,-1 0,0 0,0 0,0 0,0 0,0 0,0 1,0 1,0 1,1 0,0 0,0 1,0 0,0 0,0 0,0 0,0 0,0 1,0 0,-1 0,-1 0,-1 0,-1 0,-1 -1,-2 -1,0 -1,0 -2,0 0,0 0,0 -1,0l2 -4zm7 3c0,1 1,1 1,1 0,1 0,1 0,1 0,1 0,1 -1,2 0,0 -1,0 -1,0 -1,0 -1,0 -2,0 0,0 0,-1 0,-1 0,-1 0,-1 0,-1 0,-1 0,-1 1,-1 -1,0 -1,-1 -1,-1 0,0 0,-1 0,-1 0,0 0,-1 0,-1 1,0 1,-1 2,-1 1,0 1,0 1,1 1,0 1,0 1,1 0,0 0,0 0,1 -1,0 -1,0 -1,0zm-1 0c0,0 1,0 1,0 0,-1 0,-1 0,-1 0,-1 0,-1 -1,-1 0,0 0,0 0,0 0,0 -1,0 -1,0 0,0 0,0 0,0 0,1 0,1 0,1 0,1 1,1 1,1zm-1 1c0,0 0,0 0,0 0,1 0,1 0,1 0,0 0,0 0,1 0,0 0,0 0,0 0,1 0,1 0,1 0,0 1,0 1,0 0,0 0,0 0,0 1,0 1,-1 1,-1 0,-1 -1,-1 -2,-2zm6 -4l-2 7 -1 0 3 -7 0 0zm4 7l-4 0 0 0c2,-1 2,-2 3,-3 0,0 0,-1 0,-1 0,-1 0,-1 0,-1 0,0 -1,-1 -1,-1 -1,0 -1,1 -1,1l0 0c0,0 0,-1 0,-1 1,-1 1,-1 2,-1 0,0 0,0 1,1 0,0 0,0 0,0 0,0 1,1 1,1 0,0 -1,1 -1,1 0,1 -1,2 -2,3l1 0c1,0 1,0 1,0 0,0 0,0 0,0 0,0 1,0 1,-1l0 0 -1 2zm6 -3c0,1 0,1 0,2 0,0 0,0 -1,1 0,0 0,0 0,0 -1,0 -1,0 -1,0 0,0 -1,0 -1,0 0,0 0,0 -1,-1 0,0 0,0 0,0 0,-1 0,-2 0,-2 0,-1 0,-1 0,-2 0,-1 0,-1 1,-1 0,-1 1,-1 1,-1 0,0 1,0 1,1 0,0 1,0 1,1 0,0 0,1 0,2zm-1 0c0,-1 0,-2 0,-2 0,-1 -1,-1 -1,-1 0,0 0,0 0,0 0,0 0,0 0,0 -1,0 -1,0 -1,0 0,1 0,2 0,3 0,1 0,2 0,2 0,1 0,1 1,1 0,0 0,0 0,0 0,0 0,0 0,0 0,0 1,-1 1,-1l0 -2zm6 0c0,1 0,1 0,2 0,0 0,0 0,1 -1,0 -1,0 -1,0 0,0 -1,0 -1,0 0,0 -1,0 -1,0 0,0 0,0 -1,-1 0,0 0,0 0,0 0,-1 0,-2 0,-2 0,-1 0,-1 0,-2 0,-1 1,-1 1,-1 0,-1 1,-1 1,-1 0,0 1,0 1,1 1,0 1,0 1,1 0,0 0,1 0,2zm-1 0c0,-1 0,-2 0,-2 0,-1 0,-1 -1,-1 0,0 0,0 0,0 0,0 0,0 0,0 0,0 0,0 -1,0 0,1 0,2 0,3 0,1 0,2 1,2 0,1 0,1 0,1 0,0 0,0 0,0 0,0 0,0 0,0 1,0 1,-1 1,-1l0 -2zm6 0c0,1 0,1 0,2 0,0 0,0 0,1 -1,0 -1,0 -1,0 0,0 0,0 -1,0 0,0 0,0 -1,0 0,0 0,0 0,-1 -1,0 -1,0 -1,0 0,-1 0,-2 0,-2 0,-1 0,-1 0,-2 1,-1 1,-1 1,-1 0,-1 1,-1 1,-1 1,0 1,0 1,1 1,0 1,0 1,1 0,0 0,1 0,2zm-1 0c0,-1 0,-2 0,-2 0,-1 0,-1 0,-1 0,0 -1,0 -1,0 0,0 0,0 0,0 0,0 0,0 0,0 0,1 0,2 0,3 0,1 0,2 0,2 0,1 0,1 0,1 0,0 0,0 0,0 0,0 1,0 1,0 0,0 0,-1 0,-1l0 -2z"/>
   <polygon class="fil3" points="222,138 218,150 217,150 221,138 "/>
  </g>
  <g id="_2909174782304">
   <path class="fil0" d="M73 2c41,0 73,33 73,73 0,41 -32,73 -73,73 -40,0 -73,-32 -73,-73 0,-40 33,-73 73,-73z"/>
   <g>
    <path class="fil4 str2" d="M4 76c0,38 31,69 69,69 38,0 69,-31 69,-69l-21 0c0,27 -22,48 -48,48 -26,0 -47,-21 -47,-48l-22 0z"/>
    <path class="fil4 str2" d="M120 68c-3,-24 -23,-42 -47,-42 -24,0 -44,18 -47,42l-21 0c3,-35 32,-63 68,-63 36,0 65,28 69,63l-22 0z"/>
    <polygon class="fil4 str2" points="30,58 117,58 117,62 30,62 "/>
    <path class="fil0" d="M130 101c0,0 0,0 0,0 0,-1 0,0 -1,0 0,0 0,0 0,0l-1 0 -5 -2 6 0c0,0 1,0 1,0 0,-1 0,-1 0,-1 -1,0 -2,-2 -5,-4l5 2 0 0c1,0 1,0 1,0 0,0 0,1 0,1 1,0 1,0 1,-1l1 -1c0,-1 0,-1 -1,-1 0,0 0,0 0,0 0,0 -1,0 -1,0l-5 -2 0 0c-1,0 -1,0 -1,0 0,-1 0,-1 0,-1 0,0 0,0 -1,1l0 1c0,1 0,1 0,1l4 3 -5 0c0,0 -1,0 -1,0 0,0 0,1 0,1l-1 1c0,1 0,1 1,1 0,0 0,0 0,0 0,0 1,0 1,0l0 0 5 2c0,0 1,0 1,1 0,0 0,0 0,0 0,0 0,0 1,0l0 -2zm-11 3l-3 4c0,1 0,1 0,1 0,0 0,0 1,0 0,0 0,0 0,0l5 3c1,0 1,1 1,1 0,0 0,0 0,0 0,0 0,0 0,0l3 -4c0,-1 1,-1 1,-1 -1,-1 -1,-1 -1,-1 -1,0 -1,0 -1,0 0,0 0,0 0,1 0,0 0,1 0,1l-1 1c0,1 -1,1 -1,1l-2 -2 1 -1c0,-1 0,-1 0,-1 0,0 1,0 1,0 0,-1 0,-1 -1,-1l0 0c0,0 0,0 -1,0 0,0 0,0 0,1 0,0 0,0 0,0l-1 2 -2 -1c0,-1 0,-1 0,-2l0 0c1,-1 1,-1 2,-1 0,-1 0,-1 1,-1 0,0 0,0 -1,0 0,-1 -1,-1 -1,0 0,0 0,-1 0,0zm-2 14l-5 -4c1,-1 1,-1 2,-1 0,0 1,0 1,-1 0,0 0,0 0,0 -1,0 -1,-1 -1,-1 -1,0 -1,1 -1,1l-4 3c0,1 0,1 0,1 0,0 0,1 1,1 0,0 0,0 0,0 0,0 0,0 0,-1 0,0 1,-1 1,-1l5 4c0,1 0,1 0,1 0,0 0,0 0,1 0,0 1,0 1,-1l1 -1c0,0 0,0 0,-1 0,0 0,0 0,0 -1,0 -1,0 -1,0l0 0zm-15 6c1,1 2,1 4,1 1,-1 1,-1 2,-1 0,0 0,0 1,1 0,0 0,1 -1,2 -1,1 -2,1 -2,0 -1,0 -1,0 -1,0 -1,0 -1,0 -1,1 1,1 3,1 5,0 1,-2 2,-3 1,-5 -1,0 -1,-1 -2,-1 -1,0 -1,0 -2,1 -1,0 -2,1 -3,0 0,-1 0,-2 1,-3 0,0 1,0 2,0 0,0 0,1 1,0 0,0 0,0 0,0 -1,-1 -1,-1 -1,-1 -1,0 -2,0 -3,1 -1,1 -2,3 -1,4 0,0 -1,-1 0,0zm-4 7l-1 -1c0,0 0,-1 0,-1 0,0 1,-1 1,-3 0,-1 0,-1 0,-1 0,-1 0,-1 0,-1 0,0 0,0 -1,0l-1 0c0,0 0,1 0,1 0,0 0,0 0,0 1,0 1,0 1,0 0,1 0,2 -1,4 -2,-1 -3,-2 -3,-2 0,0 0,-1 0,-1 0,0 0,0 0,0l-2 1c0,0 0,0 0,0 0,1 0,0 0,0 1,1 1,1 2,1 1,1 2,2 3,2 0,0 0,1 0,1l1 1c0,1 0,1 0,1 -1,0 -1,0 -1,0 1,1 1,1 1,1l2 -1c0,0 0,-1 0,-1 0,0 0,0 -1,0 0,0 0,0 0,-1 0,0 0,1 0,0zm-16 1c0,1 1,2 3,2 1,0 1,-1 2,0 0,0 0,0 1,0 0,1 -1,2 -2,2 -1,1 -2,0 -2,0 -1,-1 -1,-1 -1,-1 0,0 -1,0 -1,1 1,1 2,2 4,1 2,0 3,-2 3,-3 0,-1 -1,-2 -1,-2 -1,0 -1,0 -2,0 -2,0 -3,0 -3,-1 0,-1 0,-2 2,-2 0,0 1,0 1,0 1,1 1,1 1,1 0,0 0,0 0,-1 0,0 0,-1 0,-1 -1,0 -2,0 -3,0 -2,1 -3,2 -2,4 0,0 -1,-2 0,0zm-15 4l0 -1c0,-1 0,-1 0,-1 1,-1 1,-1 2,-2 1,-1 1,-2 1,-2 0,0 1,0 1,0 0,0 0,-1 -1,-1l-1 0c0,0 -1,0 -1,1 0,0 1,0 1,0 0,0 0,0 0,0 0,1 -1,2 -2,3 -2,-2 -2,-3 -2,-3 0,-1 0,-1 1,-1 0,0 -1,0 -1,0l-2 0c0,0 0,0 0,0 0,0 0,0 0,0 0,1 0,1 1,2 0,2 1,2 1,3 0,0 0,0 0,1l0 1c0,1 0,1 0,1 0,0 -1,0 -1,0 0,0 1,0 1,0l2 1c0,0 0,0 0,0 0,-1 0,-1 0,-1 0,0 0,0 0,-1 0,0 0,1 0,0zm-11 -2l2 -6c1,0 1,0 1,1 1,0 1,1 1,1 0,0 0,0 0,0 1,-1 1,-2 0,-2 0,0 0,0 0,0l-5 -2c0,0 -1,0 -1,0 0,0 0,1 -1,2 0,0 0,0 1,0 0,0 0,0 1,-1 0,0 1,0 1,1l-2 6c0,0 0,0 0,0 0,1 0,1 0,1 0,0 0,0 0,0l2 1c0,0 0,0 0,0 0,-1 0,-1 0,-1 0,0 0,0 0,-1l0 0zm-6 -10l-2 -1c0,0 -1,0 -1,0 0,0 0,1 1,1 0,0 -1,0 -1,0l-3 6c0,0 0,0 0,0 0,0 0,0 -1,0 0,0 0,1 1,1l1 1c1,0 1,0 1,0 0,-1 0,-1 0,-1 0,0 0,0 0,-1l3 -5c0,0 0,0 0,0 1,0 1,0 1,0 0,-1 0,-1 0,-1 0,0 0,0 0,0zm-13 0l3 -4c0,-1 1,-1 1,-1 0,0 0,0 0,0 0,0 0,0 0,0l-1 -2c-1,0 -1,0 -1,0 0,1 0,1 0,1 0,0 0,0 0,1l-4 4c0,1 0,1 0,1 -1,0 -1,0 -1,0 0,0 0,0 0,0l4 3c1,1 1,1 1,1 0,0 1,-1 1,-1 0,0 0,0 0,0 0,-1 -1,0 -1,0 0,0 -1,-1 -2,-1l0 -1c-1,0 -1,0 0,-1 0,0 -1,1 0,0zm-5 -7l-2 -2c1,-1 2,-1 3,-2 0,1 -1,3 -1,4 0,0 0,-1 0,0zm-6 0c1,0 1,0 1,0 0,0 0,0 0,-1 0,0 0,0 0,0 0,0 1,0 2,-1l2 3c0,0 0,1 -1,1 0,0 0,0 0,0 0,0 0,0 -1,0 0,1 0,1 1,1l1 1c0,1 0,1 0,0 1,0 0,0 1,0 0,-1 0,-1 1,-3 0,-1 1,-3 2,-4 0,-1 0,-1 0,-1 -1,-1 -1,-1 -2,0 -1,0 -3,1 -5,2 -1,0 -1,0 -2,0 0,0 0,0 0,0 -1,1 0,1 0,1l0 1zm3 -11c0,0 0,0 0,0 0,0 0,0 0,1 0,0 -2,1 -4,2 -2,1 -3,1 -4,0 -1,-2 0,-3 2,-4 2,-1 3,-2 4,-2 0,0 0,1 0,0 1,0 1,0 0,0l0 -2c-1,0 -1,0 -1,0 0,0 0,0 0,0 0,1 0,1 -1,1 0,0 -2,1 -3,2 -2,1 -3,2 -2,5 2,2 3,2 5,1 2,-1 3,-2 4,-2 0,0 0,0 1,0 0,0 0,0 0,0 0,0 0,0 0,-1l-1 -1zm-13 -8c1,1 3,2 5,1 1,0 2,-1 2,-2 1,-1 1,-2 1,-3 -1,-1 -2,-2 -3,-3 -1,0 -2,0 -3,0 -2,1 -3,2 -3,3 0,1 0,2 0,2 0,0 0,1 0,1 -1,1 -1,2 -1,3 1,1 1,1 1,1 1,0 1,0 1,-1 0,0 0,0 0,-1 -1,0 -1,-1 0,-1 0,0 -1,0 0,0zm0 -1c0,0 1,0 1,0 0,-1 0,-1 0,-1 0,0 0,-1 0,0 -1,0 -1,0 -1,0 -1,-1 0,-2 2,-3 3,-1 4,0 5,1 0,1 -1,3 -3,4 -2,0 -3,0 -4,-1 0,0 1,1 0,0z"/>
    <g>
     <polygon class="fil5" points="59,83 57,84 58,85 57,84 55,85 56,84 55,83 56,83 57,81 57,83 "/>
     <polygon class="fil5" points="54,84 53,85 53,86 52,86 51,86 51,85 50,84 52,84 52,83 53,84 "/>
     <polygon class="fil5" points="50,83 49,84 49,85 48,84 46,85 47,84 46,83 47,83 48,81 48,83 "/>
     <polygon class="fil5" points="62,87 60,87 61,89 59,88 58,89 59,87 57,87 59,87 59,85 60,87 "/>
     <polygon class="fil5" points="56,78 55,79 55,81 54,80 53,81 53,79 52,78 53,78 54,77 54,78 "/>
     <polygon class="fil5" points="50,67 49,68 49,69 48,68 47,69 47,68 46,67 47,67 48,65 48,67 "/>
     <polygon class="fil5" points="47,70 46,71 46,72 45,71 44,72 44,71 43,70 44,70 45,69 45,70 "/>
     <polygon class="fil5" points="45,75 44,76 45,77 43,76 42,77 43,76 41,75 43,75 43,73 44,75 "/>
     <polygon class="fil5" points="46,79 45,80 46,82 44,81 43,82 44,80 42,79 44,79 44,78 45,79 "/>
     <polygon class="fil5" points="62,79 61,80 61,82 60,81 59,82 59,80 58,79 60,79 60,78 60,79 "/>
     <polygon class="fil5" points="63,75 62,75 62,77 61,76 60,77 60,75 59,75 61,75 61,73 62,75 "/>
     <polygon class="fil5" points="62,70 61,71 61,72 60,71 59,72 59,71 58,70 60,70 60,68 61,70 "/>
     <polygon class="fil5" points="59,67 58,68 58,69 57,68 56,69 56,68 55,67 56,67 57,65 57,67 "/>
     <polygon class="fil5" points="54,66 53,67 54,68 52,67 51,68 52,67 50,66 52,66 52,64 53,66 "/>
    </g>
    <path class="fil0" d="M21 43c-1,0 -1,0 -1,0 -1,0 -2,1 -2,2 -1,1 -1,3 0,4 0,1 1,2 2,2 1,1 3,1 4,0 1,0 2,-1 2,-2 1,-1 1,-2 0,-3 0,0 0,-1 0,-1 0,0 0,0 -1,0 0,1 0,1 1,1 0,1 0,2 0,3 -1,1 -3,2 -5,1 -2,-2 -3,-3 -2,-5 0,0 1,-1 1,-1 1,0 1,0 2,0 0,0 0,-1 -1,-1l0 0zm9 -14l-3 4c-1,0 -1,0 -1,0 1,1 1,0 1,0 0,0 0,1 1,1l4 4c0,0 0,0 0,1 0,0 0,0 0,0 0,0 1,0 1,0l4 -4c0,0 0,-1 0,-1 0,0 0,-1 -1,-1 0,0 0,0 0,0 0,0 0,1 0,1 0,1 0,1 -1,2l-1 0c0,1 -1,1 -1,0l-2 -1 1 -2c1,0 1,0 1,0 0,0 0,0 1,0 0,-1 0,-1 -1,-1l0 0c0,-1 0,-1 -1,-1 0,1 0,1 0,1 0,0 0,1 0,1l-2 1 -1 -1c-1,-1 -1,-1 0,-2l1 0c0,-1 0,-1 1,-1 0,0 1,0 1,0 0,0 0,-1 0,-1 -1,0 -1,-1 -2,0 0,0 1,-1 0,0zm14 -4c1,-1 1,-1 1,-1 2,0 3,1 3,2 0,0 0,0 0,0 0,0 0,0 0,0 0,1 0,1 1,0l2 -1c0,0 0,0 0,0 0,0 0,0 -1,0 0,0 0,0 0,0 -1,-1 -2,-2 -3,-3 0,-1 1,-1 0,-2 -1,-2 -2,-2 -4,-1l-3 2c0,0 0,1 0,1 0,0 0,0 1,0 0,0 0,0 0,0l3 6c0,0 0,0 0,0 0,1 0,1 0,1 0,0 0,0 1,0l1 -1c1,0 1,0 1,-1 -1,0 -1,0 -1,0 0,0 0,0 -1,0l-1 -2zm0 -1l-1 -2c-1,-1 -1,-1 0,-2 1,0 2,0 3,1 0,1 0,2 -2,3 0,0 2,-1 0,0zm19 -4l-2 -6c1,0 1,0 2,0 0,0 0,0 1,0 0,0 0,0 0,0 0,-1 0,-1 -1,-1 0,0 0,0 0,0l-5 1c-1,0 -1,0 -1,0 0,0 0,1 0,2 0,0 0,0 0,0 1,0 1,-1 1,-1 0,0 1,-1 1,-1l2 7c0,0 0,0 0,0 0,1 0,1 0,1 0,0 0,0 0,0l2 0c0,-1 0,-1 0,-1 0,0 0,0 0,0 0,0 0,0 0,-1l0 0zm13 -8l-2 0c0,0 0,0 0,0 0,0 0,1 0,1 1,0 1,0 1,0l-1 6c0,1 0,1 0,1 0,0 0,0 0,0 0,1 0,1 0,1l2 0c1,0 1,0 1,-1 0,0 -1,0 -1,0 0,0 0,0 0,-1l0 -6c0,0 0,0 1,0 0,0 0,-1 0,-1 0,0 0,0 -1,0 0,0 1,0 0,0zm14 3l1 0c1,0 1,1 2,1 0,0 0,1 0,1 0,0 1,0 1,0 0,-1 0,-2 -1,-2l-5 -1c0,0 0,0 0,0 -1,0 0,0 0,0 0,1 0,1 0,1l-2 6c0,0 0,0 0,0 0,0 -1,0 -1,1 0,0 0,0 1,0l1 1c1,0 1,0 1,-1 0,0 0,0 0,0 0,0 0,0 0,-1l1 -2 1 0c1,0 1,0 1,0 0,1 0,1 0,1 1,0 1,0 1,-1l0 0c0,0 0,-1 0,-1 0,0 -1,1 -1,1 0,0 0,-1 -1,-1l-1 0 0 -2c1,-1 1,-1 1,-1 0,0 0,0 0,0zm16 6l-2 -1c0,0 0,0 -1,0 0,0 0,1 1,1 0,0 0,0 -1,0l-3 5c0,1 0,1 0,1 -1,0 -1,0 -1,0 0,0 0,0 1,1l1 1c0,0 1,0 1,0 0,-1 0,-1 0,-1 0,0 0,0 0,-1l3 -5c0,0 0,0 0,0 1,0 1,0 1,0 0,-1 0,-1 0,-1 0,0 0,0 0,0zm13 11l-4 -4c0,0 0,0 0,0 -1,0 0,0 0,1 0,0 -1,0 -1,0l-4 4c0,1 0,1 -1,1 0,0 0,-1 0,0 0,0 0,0 0,0l4 4c0,0 0,1 0,1 1,-1 1,-1 2,-1 0,0 0,0 0,-1 -1,0 -1,0 -1,0 -1,0 -1,0 -2,-1l-1 0c0,-1 0,-1 0,-2l2 -2 1 2c1,0 1,0 1,0 0,1 0,1 0,1 0,0 1,0 1,0l0 0c1,-1 1,-1 0,-1 0,0 0,0 0,0 0,0 -1,-1 -1,-1l-1 -1 1 -2c1,0 1,0 2,0l0 1c1,1 1,1 1,1 0,1 0,1 0,1 0,1 0,1 1,0 0,0 0,-1 0,-1 0,0 0,0 0,0zm2 15l5 -3c1,0 1,0 1,1 1,2 0,3 -2,5 -2,0 -3,0 -4,-2 -1,-1 0,-1 0,-1 0,0 0,0 0,0zm-2 -1l1 2c1,1 1,2 2,3 1,1 3,1 4,0 3,-1 3,-4 2,-7l-1 -2c-1,0 -1,0 -1,0 0,0 0,0 0,0 0,1 0,1 -1,1l-5 3c0,0 0,0 -1,0 0,-1 0,-1 0,-1 0,1 0,1 0,1 0,0 0,0 0,0z"/>
    <path class="fil5" d="M113 70l0 3 -5 0 0 6c0,1 0,2 0,2 1,1 1,1 2,1 1,0 2,0 3,-1l0 4c-1,0 -1,0 -2,0 -1,0 -2,1 -2,1 -2,0 -3,-1 -5,-2 -1,-1 -1,-2 -1,-4l0 -7 -2 0 0 -1 6 -7 1 0 0 5 5 0zm-23 6l6 0c0,-1 0,-2 -1,-3 0,0 -1,-1 -2,-1 -1,0 -2,1 -2,1 -1,1 -1,2 -1,3 0,0 0,-1 0,0zm10 4l0 3c-1,1 -2,2 -3,2 -2,0 -3,1 -4,1 -1,0 -2,-1 -3,-1 -1,0 -2,-1 -3,-2 -1,0 -1,-1 -2,-2 0,-1 -1,-2 -1,-3 0,-2 1,-3 2,-5 0,-1 1,-2 2,-2 2,-1 3,-1 4,-1 2,0 3,0 4,1 2,0 3,1 3,3 1,1 1,2 1,4l-11 0c1,2 1,3 2,4 1,0 2,1 3,1 1,0 2,0 2,-1 1,0 1,0 2,0 1,-1 1,-1 2,-2 0,0 -1,1 0,0zm-17 -15l0 20 -4 0 -9 -13 0 13 -5 0 0 -20 4 0 9 12 0 -12 5 0zm-44 20l-5 0 0 -20 5 0 0 20zm-34 -15l21 0c0,1 0,3 0,4l-22 0c0,-1 0,-3 1,-4 0,0 -1,1 0,0zm116 0l21 0c0,1 0,3 0,4l-21 0c0,-1 0,-3 0,-4 0,0 0,1 0,0zm-91 21l87 0 0 2 -87 0 0 -2z"/>
   </g>
  </g>
 </g>
</svg>
