<?xml version="1.0" encoding="UTF-8"?>
<!DOCTYPE svg PUBLIC "-//W3C//DTD SVG 1.1//EN" "http://www.w3.org/Graphics/SVG/1.1/DTD/svg11.dtd">
<!-- Creator: CorelDRAW X8 -->
<svg xmlns="http://www.w3.org/2000/svg" xml:space="preserve" width="156.604mm" height="88.0064mm" version="1.1" style="shape-rendering:geometricPrecision; text-rendering:geometricPrecision; image-rendering:optimizeQuality; fill-rule:evenodd; clip-rule:evenodd"
viewBox="0 0 10050 5648"
 xmlns:xlink="http://www.w3.org/1999/xlink">
 <defs>
  <style type="text/css">
   <![CDATA[
    .fil0 {fill:none}
    .fil3 {fill:#FEFEFE}
    .fil5 {fill:#2D2B2D}
    .fil1 {fill:#EE8220}
    .fil2 {fill:#0094D0}
    .fil4 {fill:#FEFEFE;fill-rule:nonzero}
    .fil6 {fill:#2D2B2D;fill-rule:nonzero}
   ]]>
  </style>
 </defs>
 <g id="Capa_x0020_1">
  <metadata id="CorelCorpID_0Corel-Layer"/>
  <polygon class="fil0" points="0,0 10050,0 10050,5648 0,5648 "/>
  <g id="_2908161365344">
   <g>
    <polygon class="fil1" points="1558,4193 590,4977 684,4971 803,4965 919,4959 1036,4952 1161,4941 1279,4932 1403,4919 1526,4905 1650,4891 1776,4875 1904,4857 2029,4839 2156,4820 2283,4798 2415,4776 2544,4753 2673,4728 2804,4701 2934,4675 3067,4645 3199,4615 3329,4585 3461,4553 3593,4520 3727,4484 3858,4449 3991,4412 4122,4375 4255,4334 4385,4295 4517,4252 4647,4210 4779,4165 4908,4121 5037,4074 5166,4028 5297,3978 5423,3930 5549,3879 5675,3827 5798,3775 5923,3721 6045,3665 6165,3611 6285,3553 6402,3497 6519,3437 6633,3378 6745,3318 6859,3256 6968,3194 7077,3131 7183,3067 7287,3003 7388,2938 7487,2873 7583,2806 7681,2738 7772,2670 7865,2601 7954,2532 8037,2463 8123,2391 8202,2321 8204,2322 8086,2385 7970,2447 7855,2505 7738,2563 7621,2619 7507,2672 7389,2725 7277,2775 7161,2824 7049,2870 6936,2915 6825,2958 6714,2998 6603,3039 6496,3076 6389,3111 6279,3147 6174,3180 6068,3210 5964,3241 5860,3269 5758,3296 5653,3322 5555,3346 5455,3369 5354,3390 5258,3410 5159,3430 5065,3447 4970,3463 4875,3478 4783,3493 4690,3506 4599,3517 4513,3527 4424,3536 4335,3544 4248,3552 4163,3559 4080,3563 4000,3567 3917,3569 3836,3572 3760,3572 3681,3574 3606,3572 3532,3570 3460,3566 3387,3563 3319,3558 3249,3553 3183,3546 3117,3539 3055,3531 2994,3521 2934,3511 2875,3502 2820,3490 2767,3477 2714,3464 2664,3452 2615,3437 2569,3423 2525,3407 "/>
    <polygon class="fil2" points="8492,1455 9460,671 9366,677 9247,683 9132,689 9014,696 8889,707 8772,716 8647,729 8524,743 8400,757 8274,773 8146,791 8021,809 7894,828 7767,849 7635,872 7506,895 7377,920 7247,946 7116,973 6983,1003 6851,1033 6721,1063 6589,1095 6457,1128 6323,1163 6192,1199 6059,1236 5928,1273 5795,1314 5665,1353 5533,1395 5403,1438 5271,1483 5142,1527 5013,1574 4884,1620 4753,1670 4627,1718 4501,1769 4376,1821 4253,1873 4127,1927 4005,1983 3885,2037 3766,2095 3648,2151 3532,2211 3417,2270 3305,2330 3191,2392 3082,2454 2973,2516 2867,2581 2764,2645 2662,2710 2563,2775 2467,2842 2369,2910 2278,2978 2185,3046 2096,3116 2013,3185 1927,3257 1848,3327 1846,3326 1964,3263 2081,3201 2195,3143 2312,3085 2430,3028 2543,2975 2661,2923 2773,2873 2889,2824 3002,2778 3114,2733 3225,2690 3336,2650 3447,2609 3554,2572 3661,2537 3771,2501 3876,2468 3983,2438 4086,2407 4190,2379 4292,2352 4397,2326 4495,2302 4595,2279 4696,2257 4792,2237 4891,2218 4985,2201 5080,2185 5175,2170 5267,2155 5360,2142 5451,2131 5537,2121 5626,2111 5716,2104 5802,2096 5887,2089 5970,2084 6050,2081 6133,2078 6214,2075 6291,2076 6369,2074 6444,2076 6518,2078 6591,2082 6663,2085 6731,2090 6801,2095 6867,2102 6933,2109 6995,2117 7057,2127 7116,2137 7175,2146 7230,2158 7283,2170 7336,2183 7386,2196 7435,2211 7481,2225 7525,2241 "/>
    <g>
     <path class="fil3" d="M2134 3329l-377 0 158 -663 -223 0 54 -225 824 0 -55 225 -222 0 -159 663zm840 -492l20 0c57,0 101,-12 131,-36 31,-23 47,-58 47,-102 0,-26 -10,-44 -30,-57 -19,-12 -50,-18 -91,-18 -3,0 -7,0 -12,1 -6,0 -11,0 -15,0l-50 212zm-495 492l214 -888 317 0c198,0 335,17 410,51 75,35 113,94 113,177 0,73 -24,132 -71,179 -48,47 -116,77 -206,92l166 389 -398 0 -85 -359 -84 359 -376 0zm978 0l506 -888 442 0 95 888 -379 0 2 -131 -222 0 -59 131 -385 0zm523 -310l150 0 5 -329 -155 329zm581 310l214 -888 347 0 121 477 126 -477 315 0 -211 888 -345 0 -128 -460 -119 460 -320 0zm1087 0l213 -888 377 0 -161 668 276 0 -53 220 -652 0zm794 -317l135 -571 378 0 -144 594c-1,5 -2,10 -3,14 0,4 -1,8 -1,14 0,15 7,27 20,35 13,9 31,13 54,13 29,0 53,-6 70,-19 16,-12 28,-31 34,-57l143 -594 375 0 -137 570 -3 9c-26,108 -66,183 -120,226 -43,34 -98,60 -164,77 -66,17 -144,25 -234,25 -141,0 -246,-19 -314,-59 -68,-39 -102,-98 -102,-179 0,-13 1,-27 3,-42 2,-16 5,-35 10,-56zm896 317l579 -666 -351 0 54 -222 869 0 -572 660 357 0 -55 228 -881 0z"/>
     <path id="1" class="fil4" d="M1757 3250l377 0 0 159 -377 0 -77 -98 77 -61zm0 159c-44,0 -79,-36 -79,-80 0,-44 35,-79 79,-79l0 159zm236 -725l-159 664 -154 -37 158 -663 77 -61 78 97zm-155 -36c10,-43 53,-69 96,-59 42,10 69,53 59,95l-155 -36zm-146 -61l223 0 0 158 -223 0 -77 -98 77 -60zm0 158c-44,0 -80,-35 -80,-79 0,-44 36,-79 80,-79l0 158zm131 -286l-54 226 -154 -38 54 -225 77 -61 77 98zm-154 -37c10,-43 53,-69 96,-58 42,10 69,53 58,95l-154 -37zm901 98l-824 0 0 -159 824 0 77 98 -77 61zm0 -159c44,0 79,36 79,80 0,44 -35,79 -79,79l0 -159zm-132 286l55 -225 154 37 -54 226 -78 60 -77 -98zm155 38c-11,42 -54,68 -96,58 -43,-10 -69,-53 -59,-96l155 38zm-300 -98l222 0 0 158 -222 0 -78 -97 78 -61zm0 158c-44,0 -80,-35 -80,-79 0,-44 36,-79 80,-79l0 158zm-236 566l158 -663 155 36 -158 664 -78 61 -77 -98zm155 37c-11,42 -53,69 -96,59 -43,-11 -69,-53 -59,-96l155 37zm782 -432l-20 0 0 -159 20 0 0 0 0 159zm83 -178l97 126 0 0 -5 4 -4 3 -5 3 -5 3 -5 3 -5 3 -5 3 -6 3 -5 2 -5 2 -6 3 -5 2 -6 2 -5 1 -6 2 -6 2 -5 1 -6 2 -6 1 -6 1 -6 1 -6 1 -6 1 -6 1 -6 0 -6 1 -6 0 -6 1 -6 0 -6 0 -7 0 -6 0 0 -159 4 0 4 0 4 0 4 0 4 0 4 0 3 -1 4 0 3 -1 4 0 3 -1 3 0 3 -1 3 0 2 -1 3 -1 2 0 3 -1 2 -1 2 -1 2 0 2 -1 2 -1 2 -1 1 -1 2 0 2 -1 1 -1 1 -1 1 -1 2 0 1 -1 0 -1zm0 1c34,-27 84,-21 111,14 27,34 21,84 -14,111l-97 -125zm15 -40l159 0 0 0 0 6 0 6 -1 5 0 6 -1 6 0 6 -1 6 -1 6 -2 5 -1 6 -1 6 -2 5 -2 6 -2 6 -2 5 -3 6 -2 5 -3 5 -3 5 -3 6 -3 5 -3 5 -4 4 -3 5 -4 5 -4 4 -4 5 -4 4 -5 4 -4 4 -4 4 -5 3 -97 -126 1 0 1 -1 1 -1 1 -1 0 -1 1 0 1 -1 1 -1 0 -1 1 0 0 -1 1 -1 0 -1 1 -1 0 -1 1 -1 0 -1 0 -1 1 -1 0 -1 1 -1 0 -2 0 -1 1 -2 0 -2 0 -1 1 -2 0 -2 0 -2 0 -2 0 -3 0 -2 0 0zm8 11l84 -135 0 0 4 2 3 3 4 2 4 3 3 3 4 3 3 3 4 4 3 3 3 4 3 4 3 3 2 4 3 4 2 5 3 4 2 4 2 4 2 5 1 4 2 4 1 5 1 4 1 5 1 4 1 5 1 4 0 4 1 5 0 4 0 4 0 5 -159 0 0 -1 0 0 0 0 0 0 0 0 0 0 0 0 0 0 0 0 0 1 1 0 0 1 0 0 0 1 0 1 1 0 0 1 1 1 0 0 1 1 0 1 1 0 0 1 1 0 0 1 0 0 1 1 0 0 1 0 0 1 0 0 0 0 0 0zm0 0c-37,-23 -49,-72 -25,-110 23,-37 72,-48 109,-25l-84 135zm-49 -7l0 -158 0 0 5 0 4 0 5 0 4 0 4 0 5 0 4 1 5 0 4 0 4 1 4 0 5 1 4 0 4 1 4 1 4 1 4 1 4 0 5 1 4 2 4 1 4 1 4 1 4 2 4 1 4 2 4 2 4 1 4 2 4 2 4 3 3 2 -84 135 0 0 0 0 0 0 0 0 0 -1 -1 0 0 0 -1 0 -1 0 -1 -1 0 0 -1 0 -2 -1 -1 0 -1 0 -2 -1 -2 0 -1 0 -2 0 -2 -1 -2 0 -2 0 -2 -1 -3 0 -2 0 -3 0 -2 0 -3 0 -3 0 -3 -1 -3 0 -3 0 0 0zm-7 1l-11 -159 0 0 0 0 1 0 1 0 0 0 1 0 0 0 1 0 1 0 1 0 0 0 0 0 1 0 0 0 1 0 0 0 1 0 0 0 1 0 1 0 0 0 0 0 2 0 0 0 0 0 1 0 0 0 2 0 0 0 -1 0 1 0 2 0 0 0 0 158 0 0 0 0 1 0 -1 0 0 0 1 0 0 0 -1 0 0 0 -1 0 2 0 -1 0 -1 0 0 0 1 0 -1 0 0 0 0 1 -1 0 0 0 0 0 -1 0 0 0 0 0 0 0 -1 0 0 0 -1 0 0 0 -1 0 0 0 0 0 -1 0zm1 0c-44,3 -82,-30 -85,-74 -4,-43 29,-81 73,-85l12 159zm57 -60l-155 -37 77 -61 1 0 -1 0 0 0 1 0 0 0 0 0 0 0 0 0 1 0 0 0 -1 0 1 0 1 0 0 0 0 0 0 0 0 0 1 0 0 0 0 0 1 0 0 0 1 0 0 0 0 0 1 0 0 0 0 0 1 -1 0 0 1 0 0 0 11 159 0 0 -1 0 -1 0 0 0 -1 0 -1 0 0 0 -1 0 -1 0 0 0 -1 0 0 0 -1 0 -1 0 0 0 -1 0 0 0 -1 1 -1 0 0 0 0 0 -2 0 0 0 -1 0 0 0 -1 0 -1 0 -1 0 1 0 -1 0 -1 0 -1 0 78 -61zm-78 61c-44,0 -79,-36 -79,-80 0,-44 35,-79 79,-79l0 159zm-128 113l51 -211 155 37 -51 211 -77 61 -78 -98zm155 37c-10,43 -53,69 -96,59 -42,-10 -69,-53 -59,-96l155 37zm-281 -396l-214 889 -154 -37 214 -889 77 -61 77 98zm-154 -37c10,-42 53,-69 95,-58 43,10 69,53 59,95l-154 -37zm394 98l-317 0 0 -159 317 0 0 0 0 159zm444 -100l-67 145 0 0 -5 -3 -5 -2 -6 -2 -7 -2 -7 -2 -7 -3 -8 -2 -8 -2 -9 -2 -9 -2 -10 -2 -10 -2 -11 -2 -10 -1 -12 -2 -12 -2 -12 -1 -12 -1 -13 -2 -14 -1 -13 -1 -15 -1 -14 -1 -15 -1 -15 0 -16 -1 -16 -1 -17 0 -17 0 -17 -1 -17 0 -18 0 0 -159 18 0 19 1 18 0 18 0 18 1 17 0 17 1 16 1 16 1 16 1 16 1 15 1 15 1 14 2 14 1 14 2 14 2 13 2 13 2 13 2 12 2 12 2 12 3 11 3 12 3 10 3 11 3 10 3 11 4 9 3 10 4 10 4 0 0zm0 0c39,19 57,66 39,106 -19,40 -66,57 -106,39l67 -145zm159 249l-159 0 0 0 0 -5 -1 -6 0 -5 0 -4 -1 -5 -1 -4 -1 -4 -1 -4 -1 -4 -1 -4 -1 -3 -2 -4 -1 -3 -2 -3 -1 -3 -2 -3 -2 -3 -2 -2 -2 -3 -2 -3 -3 -2 -2 -3 -3 -2 -3 -3 -3 -2 -3 -3 -4 -2 -4 -3 -4 -2 -4 -3 -5 -2 -5 -2 67 -145 9 5 8 4 9 5 9 5 8 5 8 6 8 6 7 6 8 6 7 7 7 7 6 7 7 7 6 8 5 8 6 8 5 8 5 8 4 9 4 9 4 9 3 9 3 9 3 10 2 9 2 10 2 10 1 9 1 10 1 10 0 10 1 10 0 0zm-95 236l-112 -114 0 0 3 -3 3 -3 3 -3 2 -3 3 -3 2 -3 3 -4 2 -3 2 -3 2 -3 2 -4 2 -3 2 -4 1 -3 2 -4 2 -3 1 -4 1 -4 2 -4 1 -4 1 -4 1 -4 1 -4 1 -4 0 -4 1 -5 0 -4 1 -5 0 -5 1 -5 0 -5 0 -5 159 0 0 8 -1 9 0 8 -1 8 -1 9 -1 8 -1 8 -1 8 -2 8 -1 8 -2 8 -2 8 -3 8 -2 7 -3 8 -3 8 -3 7 -3 7 -4 8 -3 7 -4 7 -4 7 -5 7 -4 7 -5 6 -4 7 -5 6 -5 7 -6 6 -5 6 -6 6 -5 6 0 0zm-189 4l-146 63 60 -110 7 -1 8 -2 7 -1 6 -1 7 -2 7 -2 6 -1 6 -2 7 -2 6 -2 5 -2 6 -2 6 -2 5 -2 5 -2 5 -2 5 -3 5 -2 5 -2 4 -3 5 -2 4 -3 4 -2 4 -3 4 -3 4 -2 3 -3 4 -3 3 -3 4 -3 3 -3 3 -3 112 114 -6 5 -6 6 -7 5 -6 5 -6 6 -7 5 -7 4 -7 5 -6 5 -8 4 -7 4 -7 4 -8 4 -7 4 -8 4 -8 4 -7 3 -8 3 -9 3 -8 4 -8 2 -8 3 -9 3 -8 3 -9 2 -9 2 -9 2 -9 3 -9 2 -9 1 -9 2 -10 2 60 -110zm-60 110c-43,7 -84,-22 -91,-66 -7,-43 22,-84 65,-91l26 157zm80 341l-166 -388 146 -63 166 389 -73 111 -73 -49zm146 -62c17,40 -2,87 -42,104 -40,18 -87,-1 -104,-42l146 -62zm-471 -48l398 0 0 159 -398 0 -77 -61 77 -98zm0 159c-44,0 -79,-36 -79,-80 0,-44 35,-79 79,-79l0 159zm-7 -457l85 359 -155 37 -85 -359 0 -37 155 0zm-155 37c-10,-43 17,-86 59,-96 43,-10 86,16 96,59l-155 37zm-84 322l84 -359 155 37 -85 358 -77 62 -77 -98zm154 36c-10,43 -53,70 -95,60 -43,-10 -69,-53 -59,-96l154 36zm-453 -97l376 0 0 159 -376 0 -77 -98 77 -61zm0 159c-44,0 -79,-36 -79,-80 0,-44 35,-79 79,-79l0 159zm1553 -929l-505 889 -139 -79 506 -888 69 -41 69 119zm-138 -78c21,-39 70,-52 108,-30 38,21 51,70 30,108l-138 -78zm511 118l-442 0 0 -159 442 0 79 71 -79 88zm0 -159c44,0 80,36 80,80 0,44 -36,79 -80,79l0 -159zm16 977l-95 -889 158 -17 95 889 -79 88 -79 -71zm158 -17c5,43 -27,83 -70,87 -44,5 -83,-27 -88,-70l158 -17zm-458 -71l379 0 0 159 -379 0 -80 -81 80 -78zm0 159c-44,0 -80,-36 -80,-80 0,-44 36,-79 80,-79l0 159zm81 -209l-2 130 -159 -2 2 -131 80 -78 79 81zm-159 -3c1,-44 37,-79 81,-78 44,1 79,37 78,81l-159 -3zm-142 -78l222 0 0 159 -222 0 -72 -112 72 -47zm0 159c-44,0 -79,-36 -79,-80 0,-43 35,-79 79,-79l0 159zm-131 19l59 -131 144 65 -58 131 -73 47 -72 -112zm145 65c-18,40 -65,58 -105,40 -40,-18 -58,-65 -40,-105l145 65zm-458 -112l385 0 0 159 -385 0 -69 -119 69 -40zm0 159c-43,0 -79,-36 -79,-80 0,-44 36,-79 79,-79l0 159zm673 -311l-150 0 0 -159 150 0 79 81 -79 78zm0 -159c44,0 79,36 79,80 0,44 -35,79 -79,79l0 -159zm84 -248l-5 329 -158 -2 4 -329 8 -33 151 35zm-159 -2c1,-44 37,-79 81,-79 44,1 79,37 78,81l-159 -2zm-147 296l155 -329 144 67 -155 330 -72 45 -72 -113zm144 68c-19,39 -66,56 -106,38 -39,-19 -56,-66 -38,-106l144 68zm800 -594l-214 889 -154 -37 214 -889 77 -61 77 98zm-154 -37c10,-43 53,-69 96,-58 43,10 69,53 58,95l-154 -37zm424 98l-347 0 0 -159 347 0 77 60 -77 99zm0 -159c44,0 80,36 80,80 0,44 -36,79 -80,79l0 -159zm44 576l-121 -477 154 -39 121 477 0 40 -154 -1zm154 -39c11,43 -15,86 -58,97 -42,11 -85,-15 -96,-58l154 -39zm126 -437l-126 477 -154 -40 126 -478 77 -59 77 100zm-154 -41c11,-42 55,-67 97,-56 43,11 68,55 57,97l-154 -41zm392 100l-315 0 0 -159 315 0 77 98 -77 61zm0 -159c44,0 79,36 79,80 0,44 -35,79 -79,79l0 -159zm-288 950l210 -889 155 37 -211 889 -77 61 -77 -98zm154 37c-10,42 -53,69 -95,59 -43,-11 -69,-53 -59,-96l154 37zm-422 -98l345 0 0 159 -345 0 -77 -58 77 -101zm0 159c-44,0 -79,-36 -79,-80 0,-44 35,-79 79,-79l0 159zm-52 -561l129 460 -154 43 -128 -461 0 -41 153 -1zm-153 42c-11,-42 13,-86 56,-97 42,-12 86,13 97,55l-153 42zm-119 419l119 -460 154 40 -119 460 -77 60 -77 -100zm154 40c-11,43 -54,68 -97,57 -42,-11 -68,-54 -57,-97l154 40zm-397 -99l320 0 0 159 -320 0 -77 -98 77 -61zm0 159c-44,0 -79,-36 -79,-80 0,-44 35,-79 79,-79l0 159zm1377 -950l-213 889 -155 -37 214 -889 77 -61 77 98zm-154 -37c10,-42 53,-69 96,-58 42,10 69,53 58,95l-154 -37zm454 98l-377 0 0 -159 377 0 77 98 -77 61zm0 -159c43,0 79,36 79,80 0,44 -36,79 -79,79l0 -159zm-238 729l160 -668 155 37 -160 668 -78 61 -77 -98zm155 37c-11,43 -54,69 -96,59 -43,-10 -69,-53 -59,-96l155 37zm198 61l-276 0 0 -159 276 0 77 98 -77 61zm0 -159c43,0 79,36 79,80 0,44 -36,79 -79,79l0 -159zm-130 282l52 -221 155 37 -53 221 -77 61 -77 -98zm154 37c-10,42 -53,69 -95,59 -43,-11 -69,-53 -59,-96l154 37zm-729 -98l652 0 0 159 -652 0 -78 -98 78 -61zm0 159c-44,0 -80,-36 -80,-80 0,-44 36,-79 80,-79l0 159zm1007 -950l-136 571 -154 -37 135 -571 77 -61 78 98zm-155 -37c10,-42 53,-69 96,-59 42,11 69,53 59,96l-155 -37zm455 98l-378 0 0 -159 378 0 77 98 -77 61zm0 -159c44,0 79,36 79,80 0,44 -35,79 -79,79l0 -159zm-221 656l143 -595 155 37 -144 595 0 2 -154 -39zm154 37c-10,43 -53,69 -96,59 -42,-11 -68,-54 -58,-96l154 37zm-1 7l-157 -24 0 -1 0 -1 0 -1 0 0 0 -1 0 0 0 0 1 -2 0 0 0 0 0 -1 0 -1 0 -1 0 0 0 -1 1 0 0 -1 0 -1 0 0 0 -1 0 -1 1 -1 0 0 0 0 0 -1 0 -1 0 -1 0 0 1 -1 0 -1 0 -1 0 0 0 -1 154 41 0 0 0 0 0 0 0 0 0 1 0 0 0 0 0 0 0 0 -1 1 0 0 0 0 0 0 0 0 0 0 0 1 0 0 0 0 0 0 0 1 0 0 0 0 0 0 0 0 0 1 0 -1 0 0 0 1 0 0 0 0 0 0 0 0 0 0zm0 0c-7,43 -48,73 -91,66 -44,-7 -73,-48 -66,-91l157 25zm0 2l-159 0 0 0 0 -1 0 -1 0 0 0 -2 0 0 0 -1 0 -1 0 -1 0 0 0 -1 0 -1 0 -1 0 0 0 -1 0 -2 0 0 0 -1 0 -1 0 0 1 -1 0 -1 0 -1 0 -1 0 -1 0 0 0 -1 0 -1 0 -1 0 0 1 -1 0 -2 0 0 157 24 0 0 0 -1 0 0 0 0 0 1 0 -1 0 0 0 0 0 1 0 0 0 -1 0 0 0 0 0 1 0 0 0 -1 0 1 0 0 0 0 0 0 0 0 0 0 0 0 0 1 0 -1 0 0 0 1 0 0 0 0 0 0 0 1 0 0 0 0zm-16 -31l-88 133 0 0 -3 -2 -2 -2 -3 -2 -3 -3 -3 -2 -2 -3 -3 -2 -3 -3 -2 -3 -3 -2 -2 -3 -3 -3 -2 -4 -2 -3 -2 -3 -2 -4 -2 -3 -2 -3 -1 -4 -2 -4 -1 -3 -1 -4 -2 -4 -1 -4 0 -3 -1 -4 -1 -4 0 -4 -1 -3 0 -4 0 -4 0 -3 159 0 0 -1 0 -1 0 -1 0 -1 -1 -1 0 -1 0 -2 0 -1 -1 -1 0 -1 0 -2 -1 -1 0 -1 -1 -1 -1 -2 0 -1 -1 -1 -1 -1 0 -1 -1 -1 -1 -1 -1 -1 -1 -1 0 -1 -1 -1 -1 0 0 -1 -1 0 -1 -1 0 0 -1 -1 0 0 0 0zm10 0l0 159 0 0 -3 0 -3 0 -3 0 -3 -1 -4 0 -3 0 -3 0 -3 0 -3 -1 -3 0 -3 -1 -3 0 -3 -1 -3 0 -3 -1 -3 -1 -3 -1 -3 0 -4 -1 -3 -1 -3 -1 -3 -1 -3 -2 -3 -1 -3 -1 -3 -1 -3 -2 -3 -2 -3 -1 -3 -2 -3 -2 -3 -1 88 -133 0 0 -1 0 0 -1 0 0 -1 0 0 0 0 0 0 0 0 0 0 0 0 0 0 0 0 0 0 0 0 0 0 0 1 0 0 0 0 0 1 0 0 0 1 0 1 0 0 1 1 0 1 0 1 0 1 0 1 0 1 0 1 0 1 0 0 0zm22 -3l95 127 0 0 -3 2 -3 3 -4 2 -3 2 -4 2 -3 2 -4 2 -3 2 -4 1 -4 2 -3 1 -4 2 -4 1 -3 1 -4 1 -4 1 -4 1 -3 1 -4 1 -4 1 -4 0 -3 1 -4 1 -4 0 -4 0 -3 1 -4 0 -4 0 -4 1 -3 0 -4 0 -4 0 0 -159 2 0 1 0 2 0 1 0 2 0 1 0 1 -1 2 0 1 0 1 0 1 0 1 0 1 0 0 -1 1 0 1 0 0 0 1 0 0 -1 1 0 0 0 0 0 1 0 0 0 0 0 0 0 0 0 0 0 0 0 0 0 0 0 0 0 0 0zm0 0c35,-26 85,-19 111,16 26,35 19,85 -16,111l-95 -127zm5 -12l154 37 0 -1 -1 4 -1 4 -1 3 -1 4 -1 4 -1 3 -1 4 -2 3 -1 4 -2 3 -1 4 -2 3 -2 4 -1 3 -2 3 -2 4 -2 3 -2 3 -3 3 -2 4 -2 3 -3 3 -2 3 -3 3 -2 3 -3 3 -3 2 -3 3 -3 3 -3 2 -3 3 -3 2 -95 -127 0 0 0 0 0 0 0 0 0 0 0 0 0 0 0 0 0 0 0 0 0 0 0 0 0 -1 0 0 0 0 1 0 0 0 0 -1 0 0 0 -1 1 0 0 0 0 -1 0 -1 1 0 0 -1 0 -1 0 -1 1 -1 0 -1 0 -1 0 -1 1 0zm-1 0c10,-42 53,-69 96,-59 43,10 69,53 59,95l-155 -36zm298 -558l-143 595 -154 -37 143 -595 77 -61 77 98zm-154 -37c10,-42 53,-69 95,-58 43,10 69,53 59,95l-154 -37zm452 98l-375 0 0 -159 375 0 77 98 -77 61zm0 -159c44,0 80,36 80,80 0,44 -36,79 -80,79l0 -159zm-214 631l137 -570 154 37 -137 571 -1 2 -153 -40zm154 38c-10,42 -53,69 -96,58 -42,-10 -69,-53 -58,-96l154 38zm-156 -31l2 -9 153 42 -2 9 -154 -40 1 -2zm153 42c-12,42 -55,67 -98,56 -42,-12 -67,-56 -55,-98l153 42zm-148 267l-99 -124 1 0 3 -3 3 -3 3 -3 3 -3 3 -3 3 -3 3 -4 4 -4 3 -4 3 -4 3 -4 3 -5 3 -5 3 -5 3 -5 3 -6 3 -6 3 -6 3 -6 3 -6 3 -7 3 -7 3 -7 2 -7 3 -8 3 -8 2 -7 3 -9 2 -8 3 -9 2 -9 2 -9 155 38 -3 11 -3 11 -3 10 -3 11 -3 10 -3 10 -4 10 -3 10 -4 10 -4 9 -3 10 -4 9 -5 9 -4 9 -4 8 -5 9 -4 8 -5 9 -5 8 -5 8 -5 7 -5 8 -6 7 -5 7 -6 8 -6 6 -6 7 -6 7 -7 6 -6 6 -7 6 -7 5 0 0zm0 0c-35,28 -84,22 -112,-13 -27,-34 -21,-84 14,-111l98 124zm-193 92l-39 -154 0 0 5 -2 5 -1 5 -2 6 -1 5 -2 5 -1 4 -2 5 -2 5 -1 5 -2 4 -2 5 -2 4 -1 4 -2 5 -2 4 -2 4 -2 4 -2 4 -2 4 -2 4 -2 4 -3 3 -2 4 -2 3 -2 4 -2 3 -3 4 -2 3 -2 3 -3 3 -2 3 -2 99 124 -5 4 -5 4 -5 4 -6 4 -5 3 -5 4 -6 3 -5 4 -6 3 -5 3 -6 4 -6 3 -6 3 -6 3 -6 3 -6 3 -6 2 -6 3 -6 3 -6 2 -7 3 -6 2 -6 3 -7 2 -6 2 -7 3 -7 2 -6 2 -7 2 -7 2 -7 2 -7 2 0 0zm-254 28l0 -159 0 0 8 0 8 0 8 0 7 -1 8 0 8 0 7 0 7 -1 8 0 7 -1 7 0 7 -1 7 0 7 -1 7 0 7 -1 6 -1 7 -1 6 -1 7 0 6 -1 7 -1 6 -1 6 -1 6 -1 6 -2 6 -1 5 -1 6 -1 6 -2 5 -1 6 -1 39 154 -7 1 -7 2 -7 2 -7 1 -7 2 -8 1 -7 2 -8 1 -7 1 -8 2 -7 1 -8 1 -8 1 -7 1 -8 1 -8 1 -8 1 -8 0 -8 1 -8 1 -9 0 -8 1 -8 0 -9 1 -8 0 -9 1 -8 0 -9 0 -8 0 -9 1 -9 0 -9 0 0 0zm-353 -70l79 -138 0 1 4 2 5 3 5 2 6 3 5 2 6 2 6 3 7 2 6 2 7 2 8 2 7 2 8 2 8 2 8 2 8 1 9 2 9 1 9 2 10 1 10 1 10 1 10 1 10 1 11 1 11 1 11 0 12 1 12 0 11 1 13 0 12 0 0 159 -14 0 -13 -1 -14 0 -13 0 -13 -1 -13 -1 -13 0 -12 -1 -13 -1 -12 -2 -12 -1 -11 -1 -12 -2 -11 -2 -12 -1 -11 -2 -11 -3 -10 -2 -11 -2 -10 -3 -11 -3 -10 -2 -10 -3 -9 -4 -10 -3 -9 -4 -10 -3 -9 -4 -9 -4 -8 -5 -9 -4 -8 -5 0 0zm0 0c-38,-22 -51,-70 -30,-108 22,-38 71,-51 109,-29l-79 137zm-142 -248l159 0 0 0 0 5 0 6 0 5 1 4 0 5 1 4 1 5 1 4 1 4 1 4 1 3 1 4 2 3 1 4 2 3 2 3 2 3 1 3 2 3 3 3 2 3 2 3 3 2 3 3 3 3 3 3 3 2 4 3 3 3 4 2 4 3 5 2 -79 138 -8 -5 -9 -5 -7 -5 -8 -5 -8 -6 -7 -6 -7 -6 -7 -7 -6 -6 -7 -7 -6 -7 -6 -7 -5 -8 -6 -8 -5 -7 -4 -8 -5 -9 -4 -8 -4 -8 -3 -9 -4 -9 -3 -9 -2 -9 -3 -9 -2 -9 -2 -9 -1 -9 -1 -10 -1 -9 -1 -10 0 -9 0 -10 0 0zm3 -52l158 19 0 0 0 1 0 2 -1 1 0 1 0 1 0 1 0 1 0 2 0 1 0 0 0 2 -1 1 0 1 0 1 0 1 0 1 0 1 0 1 0 1 0 1 0 1 0 1 0 1 0 1 0 1 0 1 0 1 0 1 0 0 0 2 0 0 0 1 -159 0 0 -2 0 -1 0 -2 0 -1 0 -2 0 -1 0 -2 0 -2 0 -1 0 -2 0 -1 0 -2 0 -2 0 -1 0 -2 1 -1 0 -2 0 -2 0 -1 0 -2 0 -2 0 -1 1 -2 0 -2 0 -1 0 -2 0 -2 0 -1 1 -2 0 -2 0 -1 0 -2 0 0zm12 -65l154 37 0 -1 0 2 0 2 -1 2 0 1 -1 2 0 2 0 2 -1 1 0 2 0 2 -1 1 0 2 0 1 0 2 -1 1 0 2 0 1 0 2 -1 1 0 2 0 1 0 1 -1 2 0 1 0 1 0 2 0 1 -1 1 0 2 0 1 0 1 0 1 -158 -19 0 -2 1 -2 0 -2 0 -1 0 -2 1 -2 0 -2 0 -1 0 -2 1 -2 0 -2 0 -2 1 -2 0 -2 0 -2 1 -2 0 -2 0 -2 1 -2 0 -2 1 -2 0 -2 0 -2 1 -2 0 -3 1 -2 0 -2 1 -2 0 -2 1 -3 0 -2 1 -2 0 -1zm0 1c9,-43 52,-70 95,-60 43,10 69,53 59,95l-154 -35zm1612 -278l-579 665 -120 -104 579 -666 60 -27 60 132zm-120 -105c28,-33 79,-36 112,-7 33,28 36,78 8,112l-120 -105zm-291 -27l351 0 0 159 -351 0 -77 -98 77 -61zm0 159c-44,0 -79,-36 -79,-80 0,-43 35,-79 79,-79l0 159zm132 -283l-55 222 -154 -37 54 -223 77 -61 78 99zm-155 -38c11,-43 54,-69 96,-58 43,10 69,53 59,96l-155 -38zm946 98l-869 0 0 -159 869 0 60 132 -60 27zm0 -159c44,0 79,36 79,80 0,44 -35,79 -79,79l0 -159zm-632 688l572 -660 120 104 -572 660 -60 27 -60 -131zm120 104c-29,33 -79,37 -112,8 -34,-29 -37,-79 -8,-112l120 104zm297 27l-357 0 0 -158 357 0 78 98 -78 60zm0 -158c44,0 80,35 80,79 0,44 -36,79 -80,79l0 -158zm-132 289l55 -229 155 38 -56 228 -77 61 -77 -98zm154 37c-10,43 -53,69 -96,58 -42,-10 -68,-53 -58,-95l154 37zm-958 -98l881 0 0 159 -881 0 -60 -132 60 -27zm0 159c-44,0 -80,-36 -80,-80 0,-44 36,-79 80,-79l0 159z"/>
    </g>
    <path class="fil5" d="M2134 3329l-377 0 158 -663 -223 0 54 -225 824 0 -55 225 -222 0 -159 663zm840 -492l20 0c57,0 101,-12 131,-36 31,-23 47,-58 47,-102 0,-26 -10,-44 -30,-57 -19,-12 -50,-18 -91,-18 -3,0 -7,0 -12,1 -6,0 -11,0 -15,0l-50 212zm-495 492l214 -888 317 0c198,0 335,17 410,51 75,35 113,94 113,177 0,73 -24,132 -71,179 -48,47 -116,77 -206,92l166 389 -398 0 -85 -359 -84 359 -376 0zm978 0l506 -888 442 0 95 888 -379 0 2 -131 -222 0 -59 131 -385 0zm523 -310l150 0 5 -329 -155 329zm581 310l214 -888 347 0 121 477 126 -477 315 0 -211 888 -345 0 -128 -460 -119 460 -320 0zm1087 0l213 -888 377 0 -161 668 276 0 -53 220 -652 0zm794 -317l135 -571 378 0 -144 594c-1,5 -2,10 -3,14 0,4 -1,8 -1,14 0,15 7,27 20,35 13,9 31,13 54,13 29,0 53,-6 70,-19 16,-12 28,-31 34,-57l143 -594 375 0 -137 570 -3 9c-26,108 -66,183 -120,226 -43,34 -98,60 -164,77 -66,17 -144,25 -234,25 -141,0 -246,-19 -314,-59 -68,-39 -102,-98 -102,-179 0,-13 1,-27 3,-42 2,-16 5,-35 10,-56zm896 317l579 -666 -351 0 54 -222 869 0 -572 660 357 0 -55 228 -881 0z"/>
   </g>
   <g id="_2908161364576">
    <path class="fil6" d="M9008 2313c54,0 103,22 139,57 35,36 57,85 57,139 0,54 -22,103 -57,139 -36,35 -85,57 -139,57 -54,0 -103,-22 -139,-57 -35,-36 -57,-85 -57,-139 0,-54 22,-103 57,-139 36,-35 85,-57 139,-57zm111 85c-29,-28 -68,-45 -111,-45 -43,0 -82,17 -110,45 -29,29 -46,68 -46,111 0,43 17,82 46,110 28,29 67,46 110,46 43,0 82,-17 111,-46 28,-28 45,-67 45,-110 0,-43 -17,-82 -45,-111z"/>
    <path class="fil6" d="M8936 2603l0 -188 83 0c17,0 30,1 38,5 9,3 16,9 21,18 5,8 8,18 8,28 0,13 -4,25 -13,34 -9,9 -22,15 -40,17 7,3 12,7 15,10 7,6 14,15 21,25l32 51 -31 0 -25 -39c-7,-12 -13,-20 -18,-26 -4,-6 -9,-10 -12,-13 -4,-2 -8,-4 -12,-5 -3,0 -7,-1 -14,-1l-28 0 0 84 -25 0zm25 -105l53 0c11,0 20,-1 27,-4 6,-2 11,-6 14,-11 4,-5 5,-11 5,-17 0,-9 -3,-16 -9,-22 -7,-6 -17,-9 -31,-9l-59 0 0 63z"/>
   </g>
  </g>
 </g>
</svg>
